<svg width="28" height="28" viewBox="0 0 28 28" fill="none" xmlns="http://www.w3.org/2000/svg">
<path d="M0 14C0 21.7316 6.26836 28 14 28C21.7316 28 28 21.7316 28 14C28 6.26836 21.7316 0 14 0C6.26836 0 0 6.26836 0 14ZM14.313 7.85077C14.4134 7.95038 14.4932 8.06879 14.5479 8.19925C14.6025 8.32971 14.631 8.46966 14.6315 8.6111C14.6321 8.75255 14.6048 8.89271 14.5512 9.0236C14.4975 9.15449 14.4187 9.27354 14.319 9.37394L10.7975 12.9231H19.7885C20.0741 12.9231 20.348 13.0365 20.55 13.2385C20.7519 13.4405 20.8654 13.7144 20.8654 14C20.8654 14.2856 20.7519 14.5595 20.55 14.7615C20.348 14.9635 20.0741 15.0769 19.7885 15.0769H10.7975L14.319 18.6261C14.4187 18.7266 14.4975 18.8457 14.5511 18.9767C14.6046 19.1076 14.6319 19.2479 14.6313 19.3894C14.6306 19.5309 14.6022 19.6709 14.5474 19.8014C14.4927 19.9319 14.4128 20.0503 14.3123 20.1499C14.2118 20.2495 14.0927 20.3284 13.9617 20.3819C13.8307 20.4355 13.6905 20.4628 13.549 20.4621C13.4075 20.4615 13.2675 20.433 13.137 20.3783C13.0065 20.3236 12.8881 20.2437 12.7885 20.1432L7.4449 14.7586C7.24474 14.5568 7.13241 14.2842 7.13241 14C7.13241 13.7158 7.24474 13.4432 7.4449 13.2414L12.7885 7.85683C12.8881 7.7562 13.0066 7.67621 13.1372 7.62143C13.2678 7.56666 13.4079 7.53817 13.5495 7.53761C13.6911 7.53705 13.8314 7.56442 13.9624 7.61815C14.0934 7.67189 14.2126 7.75094 14.313 7.85077Z" fill="white"/>
</svg>
