<svg width="17" height="18" viewBox="0 0 17 18" fill="none" xmlns="http://www.w3.org/2000/svg">
<path id="Vector" d="M7.72741 17.2426C8.25896 17.3857 8.8219 17.3597 9.33799 17.1681C9.85407 16.9766 10.2976 16.629 10.6071 16.1737L5.76799 14.8771C5.8083 15.4261 6.01866 15.9489 6.36982 16.3728C6.72098 16.7968 7.1955 17.1008 7.72741 17.2426ZM15.4433 12.4873L16.4983 8.54979C17.2385 5.78767 15.9859 2.95818 13.6319 1.57744C13.5501 0.87638 13.055 0.265184 12.3286 0.0705523C11.6023 -0.12408 10.8679 0.157669 10.4465 0.723908C7.71732 0.743545 5.21805 2.56681 4.47794 5.32893L3.42288 9.26647L1.56453 10.3394C1.46332 10.3976 1.37461 10.4752 1.30352 10.5678C1.23243 10.6604 1.18036 10.7662 1.15031 10.879L0.920246 11.7376C0.85923 11.9653 0.891172 12.208 1.00905 12.4121C1.12692 12.6163 1.32107 12.7653 1.54879 12.8263L15.2864 16.5073C15.5141 16.5683 15.7567 16.5363 15.9609 16.4185C16.1651 16.3006 16.314 16.1064 16.3751 15.8787L16.6051 15.0201C16.6355 14.9074 16.6433 14.7898 16.628 14.674C16.6128 14.5583 16.5748 14.4467 16.5162 14.3457L15.4433 12.4873Z" fill="#FFA023"/>
</svg>
