<svg width="16" height="19" viewBox="0 0 16 19" fill="none" xmlns="http://www.w3.org/2000/svg">
<g id="Bolsa_Dinero">
<path id="Vector" d="M11.9228 5.98563C12.8835 5.77231 14.1347 4.81882 14.3252 4.34923C14.4368 4.07435 13.8799 3.64485 13.731 3.47162C13.3903 3.07648 13.5277 2.88177 13.6594 2.41075C13.8098 1.87531 13.4533 1.28403 12.9479 1.0521C12.4425 0.820165 11.8383 0.89318 11.3301 1.11938C10.8219 1.34559 10.3881 1.70923 9.96286 2.06715C9.65219 1.87101 9.15683 1.00485 8.35509 1.5675C7.80104 1.95548 7.75093 2.80017 7.82251 3.47448C7.99002 5.03071 8.3737 5.83817 9.0967 6.05579C10.0101 6.33067 11.0209 6.18607 11.9228 5.98563Z" fill="#FFCA28"/>
<path id="Vector_2" d="M13.4833 1.5088C13.3616 3.6062 11.3158 4.99778 10.3451 5.61054L10.975 6.15171C10.975 6.15171 11.3745 6.1603 11.9214 5.98564C12.8591 5.68785 14.2292 4.84603 14.3237 4.34924C14.4626 3.62624 13.721 3.78373 13.5535 3.21249C13.4661 2.91041 13.9787 2.33917 13.4833 1.5088ZM9.96428 2.06858C9.96428 2.06858 9.59921 1.69492 9.32862 1.52455C9.19404 1.77795 9.09812 2.05284 9.05088 2.33631C8.96641 2.83453 9.05088 3.54177 9.24988 4.06863C9.28138 4.15023 9.39877 4.13735 9.41166 4.05145C9.58346 2.919 9.96428 2.06858 9.96428 2.06858Z" fill="#E2A610"/>
<path id="Vector_3" d="M7.41304 5.80095C7.41304 5.80095 2.94766 6.28342 0.933299 10.1604C-1.08106 14.0374 0.631216 16.3882 2.44371 17.2443C4.25621 18.1004 8.82324 18.4025 11.794 17.6981C14.7647 16.9938 15.5077 15.5335 15.3688 14.1233C15.167 12.0645 13.2543 10.7989 13.2543 10.7989C13.2543 10.7989 13.3301 8.25627 11.3573 6.60555C9.60636 5.13952 7.41304 5.80095 7.41304 5.80095Z" fill="#FFCA28"/>
<path id="Vector_4" d="M9.24559 12.3251C8.2878 11.1167 7.15678 10.955 6.79457 10.5212C6.597 10.2849 6.48103 10.0459 6.52542 9.7495C6.57266 9.43453 6.93774 9.21692 7.22121 9.16395C7.55192 9.10096 8.34077 9.13388 9.00364 9.76525C9.16112 9.91414 9.10385 10.1461 9.09956 10.3537C9.08811 10.7989 9.7252 11.2313 10.2406 10.859C10.7574 10.4854 10.3609 9.65358 10.0273 9.24985C9.77531 8.9449 8.8619 8.27345 7.72659 8.16751C7.40733 8.13744 6.12312 7.94703 5.38151 9.35722C5.16819 9.76239 5.08945 10.7416 6.20615 11.5692C6.43952 11.7424 7.65071 12.358 7.98715 12.7574C8.56984 13.4489 8.17041 14.0574 7.71513 14.1376C6.47388 14.3552 5.77093 13.6837 5.64064 13.3158C5.54758 13.0538 5.64494 12.7703 5.52468 12.5241C5.40155 12.2707 5.14958 12.1705 4.88329 12.2549C4.00997 12.5327 4.28771 13.4876 4.67427 14.013C5.08802 14.5757 5.59626 14.915 6.1675 15.1011C8.29926 15.7954 9.32433 14.6988 9.50329 13.8956C9.635 13.3072 9.62069 12.7975 9.24559 12.3251Z" fill="#211D1D"/>
<path id="Vector_5" d="M8.7302 7.35145C6.91627 11.2255 6.60416 16.1176 6.60416 16.1176" stroke="#211D1D" stroke-width="0.715835" stroke-miterlimit="10"/>
<path id="Vector_6" d="M10.2349 4.91331C11.4432 5.30702 11.7109 6.39939 11.6236 6.69718C11.5191 7.0465 10.1805 5.68642 8.19043 5.76802C7.49464 5.79665 7.69651 5.37002 8.01863 5.12377C8.44384 4.79878 9.15824 4.56399 10.2349 4.91331Z" fill="#211D1D"/>
<path id="Vector_7" d="M10.2349 4.91331C11.4432 5.30702 11.7109 6.39939 11.6236 6.69718C11.5191 7.0465 10.1805 5.68642 8.19043 5.76802C7.49464 5.79665 7.69651 5.37002 8.01863 5.12377C8.44384 4.79878 9.15824 4.56399 10.2349 4.91331Z" fill="#211D1D"/>
<path id="Vector_8" d="M12.3566 8.76451C12.5084 8.66 13.018 8.84039 13.1612 9.83826C13.2314 10.3265 13.2528 10.7989 13.2528 10.7989C13.2528 10.7989 12.6515 10.2592 12.4525 9.87978C12.202 9.40017 12.1046 8.93631 12.3566 8.76451Z" fill="#E2A610"/>
</g>
</svg>
