<svg width="15" height="18" viewBox="0 0 15 18" fill="none" xmlns="http://www.w3.org/2000/svg">
<rect x="3" y="4" width="10" height="12" fill="white"/>
<rect x="5" y="1" width="6" height="3" fill="white"/>
<path d="M15.04 3.2H12.16V2.24C12.16 1.64592 11.924 1.07616 11.5039 0.656081C11.0838 0.235999 10.5141 0 9.92 0H6.08C5.48591 0 4.91616 0.235999 4.49608 0.656081C4.076 1.07616 3.84 1.64592 3.84 2.24V3.2H0.96C0.705392 3.2 0.461212 3.30114 0.281178 3.48118C0.101143 3.66121 0 3.90539 0 4.16C0 4.41461 0.101143 4.65879 0.281178 4.83882C0.461212 5.01886 0.705392 5.12 0.96 5.12H1.28V16C1.28 16.4243 1.44857 16.8313 1.74863 17.1314C2.04869 17.4314 2.45565 17.6 2.88 17.6H13.12C13.5443 17.6 13.9513 17.4314 14.2514 17.1314C14.5514 16.8313 14.72 16.4243 14.72 16V5.12H15.04C15.2946 5.12 15.5388 5.01886 15.7188 4.83882C15.8989 4.65879 16 4.41461 16 4.16C16 3.90539 15.8989 3.66121 15.7188 3.48118C15.5388 3.30114 15.2946 3.2 15.04 3.2ZM5.76 2.24C5.76 2.15513 5.79371 2.07374 5.85373 2.01373C5.91374 1.95371 5.99513 1.92 6.08 1.92H9.92C10.0049 1.92 10.0863 1.95371 10.1463 2.01373C10.2063 2.07374 10.24 2.15513 10.24 2.24V3.2H5.76V2.24ZM12.8 15.68H3.2V5.12H12.8V15.68ZM7.04 7.68V12.8C7.04 13.0546 6.93886 13.2988 6.75882 13.4788C6.57879 13.6589 6.33461 13.76 6.08 13.76C5.82539 13.76 5.58121 13.6589 5.40118 13.4788C5.22114 13.2988 5.12 13.0546 5.12 12.8V7.68C5.12 7.42539 5.22114 7.18121 5.40118 7.00118C5.58121 6.82114 5.82539 6.72 6.08 6.72C6.33461 6.72 6.57879 6.82114 6.75882 7.00118C6.93886 7.18121 7.04 7.42539 7.04 7.68ZM10.88 7.68V12.8C10.88 13.0546 10.7789 13.2988 10.5988 13.4788C10.4188 13.6589 10.1746 13.76 9.92 13.76C9.66539 13.76 9.42121 13.6589 9.24118 13.4788C9.06114 13.2988 8.96 13.0546 8.96 12.8V7.68C8.96 7.42539 9.06114 7.18121 9.24118 7.00118C9.42121 6.82114 9.66539 6.72 9.92 6.72C10.1746 6.72 10.4188 6.82114 10.5988 7.00118C10.7789 7.18121 10.88 7.42539 10.88 7.68Z" fill="#FF0000"/>
</svg>
