<svg width="28" height="28" viewBox="0 0 28 28" fill="none" xmlns="http://www.w3.org/2000/svg">
<circle cx="14" cy="14" r="14" fill="white"/>
<path d="M14.7081 6.29279C14.5203 6.10532 14.2656 6 14 6C13.7344 6 13.4797 6.10532 13.2919 6.29279L6.28114 13.2929C6.09871 13.4815 5.99776 13.7341 6.00004 13.9963C6.00232 14.2585 6.10765 14.5093 6.29334 14.6947C6.47904 14.8801 6.73024 14.9853 6.99284 14.9876C7.25544 14.9899 7.50843 14.8891 7.69732 14.7069L7.99077 14.4139V21C7.99077 21.2652 8.09629 21.5196 8.28411 21.7071C8.47194 21.8946 8.72668 22 8.99231 22H10.9954C11.261 22 11.5158 21.8946 11.7036 21.7071C11.8914 21.5196 11.9969 21.2652 11.9969 21V19C11.9969 18.7347 12.1024 18.4804 12.2903 18.2928C12.4781 18.1053 12.7328 17.9999 12.9985 17.9999H15.0015C15.2672 17.9999 15.5219 18.1053 15.7097 18.2928C15.8976 18.4804 16.0031 18.7347 16.0031 19V21C16.0031 21.2652 16.1086 21.5196 16.2964 21.7071C16.4842 21.8946 16.739 22 17.0046 22H19.0077C19.2733 22 19.5281 21.8946 19.7159 21.7071C19.9037 21.5196 20.0092 21.2652 20.0092 21V14.4139L20.3027 14.7069C20.4916 14.8891 20.7446 14.9899 21.0072 14.9876C21.2698 14.9853 21.521 14.8801 21.7067 14.6947C21.8923 14.5093 21.9977 14.2585 22 13.9963C22.0022 13.7341 21.9013 13.4815 21.7189 13.2929L14.7081 6.29279Z" fill="#FFA023"/>
</svg>
