<svg width="28" height="28" viewBox="0 0 28 28" fill="none" xmlns="http://www.w3.org/2000/svg">
<path fill-rule="evenodd" clip-rule="evenodd" d="M14 28C21.732 28 28 21.732 28 14C28 6.26801 21.732 0 14 0C6.26801 0 0 6.26801 0 14C0 21.732 6.26801 28 14 28ZM7 9.69427L9.69427 7L11.0701 8.3758L14.5287 11.7771L17.9299 8.3758L19.2484 7L22 9.69427L20.6242 11.0701L17.1656 14.5287L20.6242 17.9299L22 19.2484L19.2484 22L17.9299 20.6242L14.5287 17.1656L11.0701 20.6242L9.69427 22L7 19.2484L8.37579 17.9299L11.7771 14.5287L8.37579 11.0701L7 9.69427Z" fill="white"/>
</svg>
