<svg width="20" height="19" viewBox="0 0 20 19" fill="none" xmlns="http://www.w3.org/2000/svg">
<path d="M10.0588 5V8M10.0588 11V11.01M16.0588 1C16.8545 1 17.6176 1.31607 18.1802 1.87868C18.7428 2.44129 19.0589 3.20435 19.0589 4V12C19.0589 12.7956 18.7428 13.5587 18.1802 14.1213C17.6176 14.6839 16.8545 15 16.0588 15H11.0588L6.05884 18V15H4.05884C3.26319 15 2.50013 14.6839 1.93752 14.1213C1.37491 13.5587 1.05884 12.7956 1.05884 12V4C1.05884 3.20435 1.37491 2.44129 1.93752 1.87868C2.50013 1.31607 3.26319 1 4.05884 1H16.0588Z" stroke="#FF0000" stroke-width="1.78947" stroke-linecap="round" stroke-linejoin="round"/>
</svg>
